<svg width="20" height="22" viewBox="0 0 20 22" fill="none" xmlns="http://www.w3.org/2000/svg">
<path d="M9.51193 4.36993C7.18381 4.57618 5.01193 5.59884 2.84787 7.51095C1.97287 8.28438 0.550996 9.87423 0.148652 10.5316C0.0197461 10.7422 -0.0193164 10.9785 0.0392773 11.2063C0.148652 11.6574 1.94553 13.7414 3.12912 14.7856C7.65256 18.7859 12.6916 18.5883 17.4416 14.227C18.1721 13.5566 19.7033 11.7863 19.9104 11.3738C19.9885 11.2191 20.008 10.9785 19.9612 10.7895C19.9065 10.5617 19.3322 9.80548 18.5002 8.86446C16.9299 7.08556 15.3987 5.89102 13.7151 5.13477C12.4182 4.5504 10.7932 4.25392 9.51193 4.36993ZM11.0432 5.95118C11.6369 6.03712 11.9846 6.11876 12.4338 6.27345C13.9885 6.80626 15.4377 7.78165 16.8947 9.28126C17.3518 9.74962 18.1721 10.6949 18.3205 10.9184L18.3947 11.0301L17.801 11.709C16.4885 13.2129 15.2737 14.2227 13.8479 14.9961C12.5393 15.7094 11.4377 16.0359 10.133 16.1004C7.44553 16.2293 4.68771 14.6953 2.14865 11.6617C1.85959 11.318 1.6174 11.0172 1.60959 10.9957C1.58615 10.927 3.26584 9.12227 3.75803 8.68829C4.98068 7.61837 6.33225 6.78907 7.5549 6.35938C8.051 6.18321 8.66818 6.02852 9.08225 5.97696C9.27756 5.95118 9.47678 5.9211 9.53146 5.91251C9.79318 5.87384 10.633 5.89532 11.0432 5.95118Z" fill="#CA696A"/>
<path d="M9.35938 7.15429C8.59375 7.33046 7.92969 7.72577 7.41797 8.32304C7.02344 8.78281 6.71484 9.38867 6.55469 10.0332C6.43359 10.5273 6.43359 11.4727 6.55469 11.9668C6.65234 12.3535 6.88672 12.9164 7.07812 13.2258C7.52344 13.9434 8.30859 14.5449 9.12109 14.7898C9.56641 14.923 10.4297 14.923 10.8789 14.7898C12.1289 14.416 13.1016 13.3461 13.4414 11.9668C13.5117 11.6875 13.5273 11.507 13.5273 11C13.5273 10.493 13.5117 10.3125 13.4414 10.0332C13.1016 8.6539 12.1172 7.57109 10.8789 7.21445C10.4727 7.09843 9.73438 7.06835 9.35938 7.15429ZM10.5 8.70117C10.8828 8.79999 11.1992 9.00195 11.5078 9.3414C12.3672 10.2867 12.3672 11.7133 11.5078 12.6586C11.3359 12.8477 11.1367 13.0152 10.9883 13.1012C10.1289 13.5781 9.12891 13.3934 8.46484 12.6414C7.64453 11.7047 7.64453 10.2953 8.46484 9.35859C8.99609 8.75703 9.75781 8.50781 10.5 8.70117Z" fill="#CA696A"/>
</svg>
