<svg width="18" height="16" viewBox="0 0 18 16" fill="none" xmlns="http://www.w3.org/2000/svg">
<path d="M17.8808 7.54859C17.1551 6.01974 16.2915 4.77288 15.29 3.80801L14.2397 4.85834C15.0962 5.67685 15.8422 6.74763 16.4873 8.08119C14.7698 11.636 12.3318 13.3246 8.99999 13.3246C7.99989 13.3246 7.07871 13.1706 6.23646 12.8626L5.09839 14.0007C6.26818 14.5408 7.56871 14.8109 8.99999 14.8109C12.9676 14.8109 15.9279 12.7445 17.8808 8.61172C17.9593 8.44551 18 8.26398 18 8.08016C18 7.89634 17.9593 7.7148 17.8808 7.54859ZM16.5685 0.929495L15.6884 0.0484354C15.6731 0.0330806 15.6549 0.0208996 15.6348 0.0125887C15.6148 0.00427779 15.5933 0 15.5716 0C15.5499 0 15.5284 0.00427779 15.5084 0.0125887C15.4883 0.0208996 15.4701 0.0330806 15.4548 0.0484354L13.197 2.30517C11.9522 1.66935 10.5532 1.35145 8.99999 1.35145C5.03233 1.35145 2.07207 3.41785 0.119206 7.55065C0.0407101 7.71687 0 7.8984 0 8.08222C0 8.26604 0.0407101 8.44757 0.119206 8.61379C0.899388 10.257 1.83866 11.5741 2.93703 12.5651L0.752545 14.749C0.721597 14.78 0.704213 14.822 0.704213 14.8657C0.704213 14.9095 0.721597 14.9515 0.752545 14.9825L1.63381 15.8637C1.66478 15.8947 1.70677 15.9121 1.75055 15.9121C1.79433 15.9121 1.83632 15.8947 1.86729 15.8637L16.5685 1.16318C16.5838 1.14784 16.596 1.12963 16.6043 1.10958C16.6126 1.08953 16.6169 1.06804 16.6169 1.04634C16.6169 1.02463 16.6126 1.00314 16.6043 0.983095C16.596 0.963046 16.5838 0.944833 16.5685 0.929495ZM1.51263 8.08119C3.23223 4.5264 5.67021 2.83777 8.99999 2.83777C10.1259 2.83777 11.1496 3.03099 12.0783 3.42383L10.6271 4.87506C9.93982 4.50836 9.15287 4.37227 8.38235 4.48686C7.61183 4.60145 6.89854 4.96065 6.34771 5.51148C5.79688 6.06231 5.43767 6.7756 5.32308 7.54612C5.20849 8.31664 5.34459 9.10359 5.71129 9.79087L3.98922 11.5129C3.03612 10.6717 2.21451 9.532 1.51263 8.08119ZM6.60536 8.08119C6.60572 7.71717 6.69194 7.35837 6.85702 7.03394C7.0221 6.70951 7.26138 6.42859 7.55543 6.21401C7.84948 5.99943 8.18999 5.85724 8.54932 5.79898C8.90864 5.74073 9.27664 5.76806 9.62342 5.87875L6.71497 8.78719C6.64207 8.55896 6.60509 8.32078 6.60536 8.08119Z" fill="#CA696A"/>
<path d="M8.91819 10.3934C8.84676 10.3934 8.77637 10.3901 8.70659 10.3837L7.61621 11.474C8.27203 11.7252 8.98656 11.781 9.67343 11.6347C10.3603 11.4885 10.9901 11.1464 11.4867 10.6498C11.9832 10.1532 12.3253 9.52341 12.4716 8.83654C12.6179 8.14968 12.5621 7.43515 12.3109 6.77933L11.2205 7.86971C11.2269 7.93949 11.2302 8.00988 11.2302 8.08131C11.2304 8.38498 11.1707 8.6857 11.0546 8.96628C10.9385 9.24687 10.7682 9.50181 10.5534 9.71654C10.3387 9.93127 10.0838 10.1016 9.80317 10.2177C9.52258 10.3338 9.22186 10.3935 8.91819 10.3934Z" fill="#CA696A"/>
</svg>
