<svg width="40" height="40" viewBox="0 0 40 40" fill="none" xmlns="http://www.w3.org/2000/svg">
<g clip-path="url(#clip0_23_46)">
<path d="M30.0001 13.3334H28.3334V10C28.3334 5.40002 24.6001 1.66669 20.0001 1.66669C15.4001 1.66669 11.6667 5.40002 11.6667 10V13.3334H10.0001C8.16675 13.3334 6.66675 14.8334 6.66675 16.6667V33.3334C6.66675 35.1667 8.16675 36.6667 10.0001 36.6667H30.0001C31.8334 36.6667 33.3334 35.1667 33.3334 33.3334V16.6667C33.3334 14.8334 31.8334 13.3334 30.0001 13.3334ZM15.0001 10C15.0001 7.23335 17.2334 5.00002 20.0001 5.00002C22.7667 5.00002 25.0001 7.23335 25.0001 10V13.3334H15.0001V10ZM30.0001 33.3334H10.0001V16.6667H30.0001V33.3334ZM20.0001 28.3334C21.8334 28.3334 23.3334 26.8334 23.3334 25C23.3334 23.1667 21.8334 21.6667 20.0001 21.6667C18.1667 21.6667 16.6667 23.1667 16.6667 25C16.6667 26.8334 18.1667 28.3334 20.0001 28.3334Z" fill="#F37B7D"/>
</g>
<defs>
<clipPath id="clip0_23_46">
<rect width="40" height="40" fill="white"/>
</clipPath>
</defs>
</svg>
