<svg width="54" height="54" viewBox="0 0 54 54" fill="none" xmlns="http://www.w3.org/2000/svg">
<g clip-path="url(#clip0_23_38)">
<path d="M42.75 18L33.75 27H40.5C40.5 34.4475 34.4475 40.5 27 40.5C24.7275 40.5 22.5675 39.9375 20.7 38.925L17.415 42.21C20.1825 43.965 23.4675 45 27 45C36.945 45 45 36.945 45 27H51.75L42.75 18ZM13.5 27C13.5 19.5525 19.5525 13.5 27 13.5C29.2725 13.5 31.4325 14.0625 33.3 15.075L36.585 11.79C33.8175 10.035 30.5325 9 27 9C17.055 9 9 17.055 9 27H2.25L11.25 36L20.25 27H13.5Z" fill="#F37B7D"/>
</g>
<defs>
<clipPath id="clip0_23_38">
<rect width="54" height="54" fill="white"/>
</clipPath>
</defs>
</svg>
